<?xml version="1.0" encoding="UTF-8" standalone="no"?>
<svg
   xmlns:dc="http://purl.org/dc/elements/1.1/"
   xmlns:cc="http://creativecommons.org/ns#"
   xmlns:rdf="http://www.w3.org/1999/02/22-rdf-syntax-ns#"
   xmlns:svg="http://www.w3.org/2000/svg"
   xmlns="http://www.w3.org/2000/svg"
   xmlns:xlink="http://www.w3.org/1999/xlink"
   xmlns:sodipodi="http://sodipodi.sourceforge.net/DTD/sodipodi-0.dtd"
   xmlns:inkscape="http://www.inkscape.org/namespaces/inkscape"
   width="210mm"
   height="297mm"
   viewBox="0 0 210 297"
   version="1.1"
   id="svg8"
   inkscape:version="1.0.1 (3bc2e813f5, 2020-09-07)"
   sodipodi:docname="name.svg">
  <defs
     id="defs2">
    <linearGradient
       inkscape:collect="always"
       id="linearGradient989">
      <stop
         style="stop-color:#4886dd;stop-opacity:1"
         offset="0"
         id="stop985" />
      <stop
         style="stop-color:#1a4783;stop-opacity:1"
         offset="1"
         id="stop987" />
    </linearGradient>
    <radialGradient
       inkscape:collect="always"
       xlink:href="#linearGradient989"
       id="radialGradient991"
       cx="106.46538"
       cy="126.56752"
       fx="106.46538"
       fy="126.56752"
       r="200.8309"
       gradientTransform="matrix(0.97904082,-0.00106997,4.7911182e-4,0.43839472,2.1707843,69.700522)"
       gradientUnits="userSpaceOnUse" />
    <filter
       inkscape:collect="always"
       style="color-interpolation-filters:sRGB"
       id="filter1415"
       x="-0.030138942"
       width="1.0602779"
       y="-0.09414658"
       height="1.1882932">
      <feGaussianBlur
         inkscape:collect="always"
         stdDeviation="4.0379308"
         id="feGaussianBlur1417" />
    </filter>
  </defs>
  <sodipodi:namedview
     id="base"
     pagecolor="#ffffff"
     bordercolor="#666666"
     borderopacity="1.0"
     inkscape:pageopacity="0.0"
     inkscape:pageshadow="2"
     inkscape:zoom="0.49497475"
     inkscape:cx="732.8882"
     inkscape:cy="1118.3889"
     inkscape:document-units="mm"
     inkscape:current-layer="layer1"
     inkscape:document-rotation="0"
     showgrid="false"
     showguides="true"
     inkscape:guide-bbox="true"
     inkscape:window-width="1920"
     inkscape:window-height="1005"
     inkscape:window-x="0"
     inkscape:window-y="0"
     inkscape:window-maximized="1"
     inkscape:snap-global="false">
    <sodipodi:guide
       position="177.10496,28.54945"
       orientation="0,-1"
       id="guide1431" />
    <sodipodi:guide
       position="208.47023,-66.486559"
       orientation="0,-1"
       id="guide1433" />
  </sodipodi:namedview>
  <metadata
     id="metadata5">
    <rdf:RDF>
      <cc:Work
         rdf:about="">
        <dc:format>image/svg+xml</dc:format>
        <dc:type
           rdf:resource="http://purl.org/dc/dcmitype/StillImage" />
        <dc:title />
      </cc:Work>
    </rdf:RDF>
  </metadata>
  <g
     inkscape:label="Layer 1"
     inkscape:groupmode="layer"
     id="layer1">
    <rect
       style="fill:url(#radialGradient991);stroke:none;stroke-width:3;stroke-linecap:round;stroke-miterlimit:4;stroke-dasharray:none;fill-opacity:1"
       id="rect969"
       width="401.6618"
       height="176.08652"
       x="-97.073372"
       y="35.86335" />
    <g
       id="g1001"
       transform="translate(-6.0016853,10.507155)"
       style="stroke:#000000;stroke-opacity:1;filter:url(#filter1415)">
      <path
         style="fill:none;stroke:#000000;stroke-width:3;stroke-linecap:round;stroke-linejoin:miter;stroke-miterlimit:4;stroke-dasharray:none;stroke-opacity:1"
         d="m -48.367582,165.43658 c 18.954184,-35.44006 51.1315964,-99.424251 69.236105,-99.396372 17.220253,-0.506783 33.73106,91.378862 60.794405,99.682672 16.942178,3.37733 32.191312,-70.448831 89.812022,-92.950932 16.98364,-7.09296 88.86825,-22.160671 99.91259,13.765555 9.18118,27.373457 -101.02147,58.979007 -91.52991,72.695527 13.86901,18.50012 62.72237,-2.79199 93.32005,-16.48549"
         id="path993"
         sodipodi:nodetypes="ccccccc" />
      <path
         style="fill:none;stroke:#000000;stroke-width:3;stroke-linecap:round;stroke-linejoin:miter;stroke-miterlimit:4;stroke-dasharray:none;stroke-opacity:1"
         d="m -0.4579593,131.5257 c 9.6529728,-3.13815 19.3059453,-3.50086 28.9589183,0"
         id="path995"
         sodipodi:nodetypes="cc" />
      <path
         style="fill:none;stroke:#000000;stroke-width:3;stroke-linecap:round;stroke-linejoin:miter;stroke-miterlimit:4;stroke-dasharray:none;stroke-opacity:1"
         d="m 135.11277,124.87582 c 6.82326,-4.57526 29.90075,-16.95209 49.40103,-15.65187"
         id="path997"
         sodipodi:nodetypes="cc" />
      <path
         style="fill:none;stroke:#000000;stroke-width:3;stroke-linecap:round;stroke-linejoin:miter;stroke-miterlimit:4;stroke-dasharray:none;stroke-opacity:1"
         d="m 115.5214,164.08575 c 6.82326,-4.57526 29.90075,-16.95209 49.40103,-15.65187"
         id="path999"
         sodipodi:nodetypes="cc" />
    </g>
    <g
       id="g975"
       transform="translate(-8.6475188,7.8613218)">
      <path
         style="fill:none;stroke:#ffffff;stroke-width:3;stroke-linecap:round;stroke-linejoin:miter;stroke-miterlimit:4;stroke-dasharray:none;stroke-opacity:1"
         d="m -48.367582,165.43658 c 18.954184,-35.44006 51.1315964,-99.424251 69.236105,-99.396372 17.220253,-0.506783 33.73106,91.378862 60.794405,99.682672 16.942178,3.37733 32.191312,-70.448831 89.812022,-92.950932 16.98364,-7.09296 88.86825,-22.160671 99.91259,13.765555 9.18118,27.373457 -101.02147,58.979007 -91.52991,72.695527 13.86901,18.50012 62.72237,-2.79199 93.32005,-16.48549"
         id="path961"
         sodipodi:nodetypes="ccccccc" />
      <path
         style="fill:none;stroke:#ffffff;stroke-width:3;stroke-linecap:round;stroke-linejoin:miter;stroke-miterlimit:4;stroke-dasharray:none;stroke-opacity:1"
         d="m -0.4579593,131.5257 c 9.6529728,-3.13815 19.3059453,-3.50086 28.9589183,0"
         id="path963"
         sodipodi:nodetypes="cc" />
      <path
         style="fill:none;stroke:#ffffff;stroke-width:3;stroke-linecap:round;stroke-linejoin:miter;stroke-miterlimit:4;stroke-dasharray:none;stroke-opacity:1"
         d="m 135.11277,124.87582 c 6.82326,-4.57526 29.90075,-16.95209 49.40103,-15.65187"
         id="path965"
         sodipodi:nodetypes="cc" />
      <path
         style="fill:none;stroke:#ffffff;stroke-width:3;stroke-linecap:round;stroke-linejoin:miter;stroke-miterlimit:4;stroke-dasharray:none;stroke-opacity:1"
         d="m 115.5214,164.08575 c 6.82326,-4.57526 29.90075,-16.95209 49.40103,-15.65187"
         id="path967"
         sodipodi:nodetypes="cc" />
    </g>
    <path
       style="fill:none;stroke:#000000;stroke-width:3;stroke-linecap:round;stroke-linejoin:miter;stroke-opacity:1;stroke-miterlimit:4;stroke-dasharray:none"
       d="m -61.863229,339.05494 c 0,0 33.907376,42.1536 51.786613,14.68879 17.8792371,-27.46481 -41.254563,-49.70591 -44.238258,-66.58204 -2.983695,-16.87613 38.919203,-30.57545 64.76168,-3.89423 25.842477,26.68122 -1.0583333,79.51478 -1.0583333,79.51478"
       id="path1425"
       sodipodi:nodetypes="czzzc" />
    <path
       style="fill:none;stroke:#000000;stroke-width:3;stroke-linecap:round;stroke-linejoin:miter;stroke-opacity:1;stroke-miterlimit:4;stroke-dasharray:none"
       d="m 22.381702,321.9727 c 0,0 24.318649,4.44951 34.021484,-3.50412 9.702835,-7.95363 6.753119,-49.35079 6.753119,-49.35079"
       id="path1427"
       sodipodi:nodetypes="czc" />
    <path
       style="fill:none;stroke:#000000;stroke-width:3;stroke-linecap:round;stroke-linejoin:miter;stroke-miterlimit:4;stroke-dasharray:none;stroke-opacity:1"
       d="m 56.967545,322.89277 c 0,0 -19.652729,36.53439 -1.58334,39.64207 18.069389,3.10767 15.173211,-95.91057 42.120413,-93.24804 8.198082,1.14031 20.352232,0.59665 53.383632,29.61084 13.60244,14.40956 -31.44996,19.24212 -31.34503,30.40088 0.10493,11.15876 23.59275,32.91142 39.61516,33.20737 16.02241,0.29594 34.69712,2.43885 34.67948,-8.41517 -0.0177,-10.85402 -0.27936,-73.72515 -0.4036,-79.97258 -0.12424,-6.24743 -23.1835,-4.75766 -37.49596,-5.66759"
       id="path1429"
       sodipodi:nodetypes="czcczzzzc" />
    <path
       style="fill:none;stroke:#000000;stroke-width:3;stroke-linecap:round;stroke-linejoin:miter;stroke-miterlimit:4;stroke-dasharray:none;stroke-opacity:1"
       d="m 77.481472,326.44955 c 12.377136,-12.42109 24.790708,-11.50636 37.233228,0"
       id="path1439"
       sodipodi:nodetypes="cc" />
    <path
       style="fill:none;stroke:#000000;stroke-width:3;stroke-linecap:round;stroke-linejoin:miter;stroke-miterlimit:4;stroke-dasharray:none;stroke-opacity:1"
       d="m 268.99404,380.55982 c -0.39152,-5.11606 -16.7682,-35.02854 -33.70301,-26.14685 -16.93481,8.88169 -35.38961,11.36274 -35.0349,2.85837 0.35471,-8.50437 -0.44305,-80.71397 -0.32389,-84.50794 0.11916,-3.79397 71.09049,-4.72965 72.93362,2.31164 1.84313,7.04129 12.26556,70.2765 1.4561,84.81312 -10.06693,9.96486 -37.64791,-21.65372 -37.37439,-35.17253"
       id="path1449"
       sodipodi:nodetypes="czzzzcc" />
  </g>
</svg>
